<svg width="24" height="24" viewBox="0 0 24 24" fill="none" xmlns="http://www.w3.org/2000/svg">
<path d="M20.9293 3H3.32065C2.97039 3 2.63448 3.13914 2.38681 3.38681C2.13914 3.63448 2 3.97039 2 4.32065V21.9293C2 22.2796 2.13914 22.6155 2.38681 22.8632C2.63448 23.1109 2.97039 23.25 3.32065 23.25H20.9293C21.2796 23.25 21.6155 23.1109 21.8632 22.8632C22.1109 22.6155 22.25 22.2796 22.25 21.9293V4.32065C22.25 3.97039 22.1109 3.63448 21.8632 3.38681C21.6155 3.13914 21.2796 3 20.9293 3ZM3.32065 3.88043H20.9293C21.0461 3.88043 21.1581 3.92681 21.2406 4.00937C21.3232 4.09193 21.3696 4.2039 21.3696 4.32065V16.2065H17.7708C17.5971 16.2055 17.425 16.239 17.2644 16.3051C17.1038 16.3713 16.9579 16.4687 16.8353 16.5917L14.7113 18.7158C14.6718 18.7578 14.624 18.7913 14.571 18.814C14.518 18.8368 14.4608 18.8483 14.4031 18.8478H9.84688C9.78898 18.8497 9.73138 18.8388 9.67814 18.816C9.6249 18.7932 9.57731 18.759 9.53872 18.7158L7.41467 16.5917C7.29208 16.4687 7.14624 16.3713 6.98564 16.3051C6.82504 16.239 6.65289 16.2055 6.47921 16.2065H2.88043V4.32065C2.88043 4.2039 2.92681 4.09193 3.00937 4.00937C3.09193 3.92681 3.2039 3.88043 3.32065 3.88043ZM20.9293 22.3696H3.32065C3.2039 22.3696 3.09193 22.3232 3.00937 22.2406C2.92681 22.1581 2.88043 22.0461 2.88043 21.9293V17.087H6.47921C6.53691 17.0865 6.59407 17.098 6.6471 17.1208C6.70013 17.1435 6.74789 17.1769 6.78736 17.219L8.91141 19.3431C9.03401 19.4661 9.17985 19.5635 9.34045 19.6296C9.50105 19.6958 9.6732 19.7293 9.84688 19.7283H14.4031C14.5768 19.7293 14.749 19.6958 14.9096 19.6296C15.0701 19.5635 15.216 19.4661 15.3386 19.3431L17.4626 17.219C17.5012 17.1758 17.5488 17.1416 17.6021 17.1188C17.6553 17.096 17.7129 17.0851 17.7708 17.087H21.3696V21.9293C21.3696 22.0461 21.3232 22.1581 21.2406 22.2406C21.1581 22.3232 21.0461 22.3696 20.9293 22.3696ZM8.075 12.3436C8.03381 12.3024 8.00114 12.2535 7.97885 12.1997C7.95655 12.1459 7.94508 12.0882 7.94508 12.03C7.94508 11.9717 7.95655 11.914 7.97885 11.8602C8.00114 11.8064 8.03381 11.7575 8.075 11.7163C8.11619 11.6751 8.16509 11.6424 8.21891 11.6201C8.27272 11.5979 8.3304 11.5864 8.38866 11.5864C8.44691 11.5864 8.50459 11.5979 8.5584 11.6201C8.61222 11.6424 8.66112 11.6751 8.70231 11.7163L11.6848 14.6988V6.96196C11.6848 6.8452 11.7312 6.73323 11.8137 6.65068C11.8963 6.56812 12.0082 6.52174 12.125 6.52174C12.2418 6.52174 12.3537 6.56812 12.4363 6.65068C12.5188 6.73323 12.5652 6.8452 12.5652 6.96196V14.6988L15.5477 11.7163C15.6309 11.6331 15.7437 11.5864 15.8613 11.5864C15.979 11.5864 16.0918 11.6331 16.175 11.7163C16.2582 11.7995 16.3049 11.9123 16.3049 12.03C16.3049 12.1476 16.2582 12.2604 16.175 12.3436L12.4332 16.0745L12.3671 16.1295H12.3561L12.2901 16.1625H11.9599L11.8939 16.1295H11.8829L11.8168 16.0745L8.075 12.3436Z" fill="#B82025"/>
</svg>
