<svg width="26" height="24" viewBox="0 0 26 24" fill="none" xmlns="http://www.w3.org/2000/svg">
<g clip-path="url(#clip0_292_3014)">
<path d="M13.5133 12.0002L18.5711 7.14017C18.6847 7.01264 18.7441 6.84859 18.7374 6.68081C18.7306 6.51302 18.6582 6.35386 18.5347 6.23513C18.4111 6.1164 18.2455 6.04685 18.0709 6.04037C17.8963 6.03389 17.7255 6.09096 17.5928 6.20017L12.535 11.0602L7.47722 6.19351C7.34449 6.08429 7.17377 6.02722 6.99915 6.0337C6.82454 6.04018 6.65891 6.10974 6.53534 6.22847C6.41178 6.3472 6.3394 6.50635 6.33265 6.67414C6.32591 6.84192 6.3853 7.00597 6.49896 7.13351L11.5568 12.0002L6.49202 16.8602C6.4194 16.9199 6.36041 16.9935 6.31877 17.0762C6.27712 17.1589 6.25372 17.249 6.25003 17.3408C6.24634 17.4326 6.26244 17.5242 6.29732 17.6097C6.3322 17.6953 6.38511 17.773 6.45272 17.8379C6.52033 17.9029 6.6012 17.9537 6.69023 17.9873C6.77926 18.0208 6.87454 18.0363 6.97009 18.0327C7.06564 18.0292 7.15939 18.0067 7.24547 17.9667C7.33154 17.9266 7.40808 17.87 7.47028 17.8002L12.535 12.9402L17.5928 17.8002C17.7255 17.9094 17.8963 17.9665 18.0709 17.96C18.2455 17.9535 18.4111 17.8839 18.5347 17.7652C18.6582 17.6465 18.7306 17.4873 18.7374 17.3195C18.7441 17.1518 18.6847 16.9877 18.5711 16.8602L13.5133 12.0002Z" fill="#454958"/>
</g>
<defs>
<clipPath id="clip0_292_3014">
<rect width="24.9767" height="24" fill="white" transform="translate(0.046875)"/>
</clipPath>
</defs>
</svg>
