<svg width="76" height="69" viewBox="0 0 76 69" fill="none" xmlns="http://www.w3.org/2000/svg">
<path d="M2 59.6V23.6C2 19.6235 5.22355 16.4 9.2 16.4H11C13.2662 16.4 15.4002 15.333 16.76 13.52L24.752 2.864C25.1599 2.32011 25.8001 2 26.48 2H49.52C50.2 2 50.8401 2.32011 51.248 2.864L59.24 13.52C60.5997 15.333 62.7338 16.4 65 16.4H66.8C70.7766 16.4 74 19.6235 74 23.6V59.6C74 63.5766 70.7766 66.8 66.8 66.8H9.2C5.22355 66.8 2 63.5766 2 59.6Z" stroke="#151F47" stroke-width="4" stroke-linecap="round" stroke-linejoin="round"/>
<path d="M38.0006 52.4006C45.9533 52.4006 52.4006 45.9533 52.4006 38.0006C52.4006 30.0478 45.9533 23.6006 38.0006 23.6006C30.0477 23.6006 23.6006 30.0478 23.6006 38.0006C23.6006 45.9533 30.0477 52.4006 38.0006 52.4006Z" stroke="#151F47" stroke-width="4" stroke-linecap="round" stroke-linejoin="round"/>
</svg>
