<svg width="81" height="80" viewBox="0 0 81 80" fill="none" xmlns="http://www.w3.org/2000/svg">
<path d="M73.8332 40H53.8332L47.1665 50H33.8332L27.1665 40H7.1665" stroke="#B6B6B6" stroke-width="2" stroke-linecap="round" stroke-linejoin="round"/>
<path d="M18.6665 17.0335L7.1665 40.0002V60.0002C7.1665 61.7683 7.86888 63.464 9.11913 64.7142C10.3694 65.9644 12.0651 66.6668 13.8332 66.6668H67.1665C68.9346 66.6668 70.6303 65.9644 71.8805 64.7142C73.1308 63.464 73.8332 61.7683 73.8332 60.0002V40.0002L62.3332 17.0335C61.7812 15.9228 60.9304 14.9881 59.8764 14.3344C58.8223 13.6808 57.6068 13.3342 56.3665 13.3335H24.6332C23.3929 13.3342 22.1774 13.6808 21.1233 14.3344C20.0693 14.9881 19.2184 15.9228 18.6665 17.0335V17.0335Z" stroke="#B6B6B6" stroke-width="2" stroke-linecap="round" stroke-linejoin="round"/>
</svg>
